<svg id="Layer_1_1_" enable-background="new 0 0 64 64" height="512" viewBox="0 0 64 64" width="512" xmlns="http://www.w3.org/2000/svg"><path d="m7 61h50c2.75684 0 5-2.24316 5-5v-44c0-2.75684-2.24316-5-5-5h-5v-2c0-1.6543-1.3457-3-3-3s-3 1.3457-3 3v2h-5v-2c0-1.6543-1.3457-3-3-3s-3 1.3457-3 3v2h-6v-2c0-1.6543-1.3457-3-3-3s-3 1.3457-3 3v2h-5v-2c0-1.6543-1.3457-3-3-3s-3 1.3457-3 3v2h-5c-2.75684 0-5 2.24316-5 5v44c0 2.75684 2.24316 5 5 5zm50-2h-50c-1.6543 0-3-1.3457-3-3v-37h56v37c0 1.6543-1.3457 3-3 3zm-9-54c0-.55176.44824-1 1-1s1 .44824 1 1v6c0 .55176-.44824 1-1 1s-1-.44824-1-1zm-11 0c0-.55176.44824-1 1-1s1 .44824 1 1v6c0 .55176-.44824 1-1 1s-1-.44824-1-1zm-12 0c0-.55176.44824-1 1-1s1 .44824 1 1v6c0 .55176-.44824 1-1 1s-1-.44824-1-1zm-11 0c0-.55176.44824-1 1-1s1 .44824 1 1v6c0 .55176-.44824 1-1 1s-1-.44824-1-1zm-7 4h5v2c0 1.6543 1.3457 3 3 3s3-1.3457 3-3v-2h5v2c0 1.6543 1.3457 3 3 3s3-1.3457 3-3v-2h6v2c0 1.6543 1.3457 3 3 3s3-1.3457 3-3v-2h5v2c0 1.6543 1.3457 3 3 3s3-1.3457 3-3v-2h5c1.6543 0 3 1.3457 3 3v5h-56v-5c0-1.6543 1.3457-3 3-3z"/><path d="m29 21h-8c-.55273 0-1 .44727-1 1v8c0 .55273.44727 1 1 1h8c.55273 0 1-.44727 1-1v-8c0-.55273-.44727-1-1-1zm-1 8h-6v-6h6z"/><path d="m43 21h-8c-.55273 0-1 .44727-1 1v8c0 .55273.44727 1 1 1h8c.55273 0 1-.44727 1-1v-8c0-.55273-.44727-1-1-1zm-1 8h-6v-6h6z"/><path d="m57 21h-8c-.55273 0-1 .44727-1 1v8c0 .55273.44727 1 1 1h8c.55273 0 1-.44727 1-1v-8c0-.55273-.44727-1-1-1zm-1 8h-6v-6h6z"/><path d="m15 34h-8c-.55273 0-1 .44727-1 1v8c0 .55273.44727 1 1 1h8c.55273 0 1-.44727 1-1v-8c0-.55273-.44727-1-1-1zm-5.41406 5-1.58594 1.58594v-3.17188zm-.17188-3h3.17188l-1.58594 1.58594zm1.58594 4.41406 1.58594 1.58594h-3.17188zm1.41406-1.41406 1.58594-1.58594v3.17188z"/><path d="m29 34h-8c-.55273 0-1 .44727-1 1v8c0 .55273.44727 1 1 1h8c.55273 0 1-.44727 1-1v-8c0-.55273-.44727-1-1-1zm-5.41406 5-1.58594 1.58594v-3.17188zm-.17188-3h3.17188l-1.58594 1.58594zm1.58594 4.41406 1.58594 1.58594h-3.17188zm1.41406-1.41406 1.58594-1.58594v3.17188z"/><path d="m43 34h-8c-.55273 0-1 .44727-1 1v8c0 .55273.44727 1 1 1h8c.55273 0 1-.44727 1-1v-8c0-.55273-.44727-1-1-1zm-5.41406 5-1.58594 1.58594v-3.17188zm-.17188-3h3.17188l-1.58594 1.58594zm1.58594 4.41406 1.58594 1.58594h-3.17188zm1.41406-1.41406 1.58594-1.58594v3.17188z"/><path d="m57 34h-8c-.55273 0-1 .44727-1 1v8c0 .55273.44727 1 1 1h8c.55273 0 1-.44727 1-1v-8c0-.55273-.44727-1-1-1zm-1 8h-6v-6h6z"/><path d="m15 47h-8c-.55273 0-1 .44727-1 1v8c0 .55273.44727 1 1 1h8c.55273 0 1-.44727 1-1v-8c0-.55273-.44727-1-1-1zm-1 8h-6v-6h6z"/><path d="m29 47h-8c-.55273 0-1 .44727-1 1v8c0 .55273.44727 1 1 1h8c.55273 0 1-.44727 1-1v-8c0-.55273-.44727-1-1-1zm-1 8h-6v-6h6z"/><path d="m43 47h-8c-.55273 0-1 .44727-1 1v8c0 .55273.44727 1 1 1h8c.55273 0 1-.44727 1-1v-8c0-.55273-.44727-1-1-1zm-1 8h-6v-6h6z"/></svg>